<svg width="28" height="29" viewBox="0 0 28 29" fill="none" xmlns="http://www.w3.org/2000/svg">
<path fill-rule="evenodd" clip-rule="evenodd" d="M8.02172 23.8771C8.86817 21.5498 11.7037 19.5796 11.46 17.5887L11.4108 17.0051L10.7534 14.9896C8.49303 15.4964 7.27204 18.8234 7.23593 18.5139C7.13939 18.1506 7.01205 17.7961 6.85531 17.4543C6.53241 18.56 6.16564 19.2318 4.59494 23.9156C4.36419 24.6296 3.75302 25.2631 3.6777 24.2488C3.6546 18.3073 0.0395726 13.1422 0.0225913 7.58857C-0.188886 4.65242 1.10354 3.02081 3.09488 3.0446C5.2807 2.97243 5.74589 4.8966 6.16797 6.0736C7.57554 6.89223 9.13875 7.40746 10.7572 7.5862L11.7675 2.87716C10.6035 2.25292 9.80924 2.35581 9.26416 2.94549C9.02041 1.92429 9.6616 1.17029 11.1117 0.962992C11.0071 -0.696978 15.4348 0.0132603 15.5257 1.40301L16.9019 7.58857L16.9203 7.58695C18.5388 7.40761 20.1019 6.89215 21.5096 6.07358C21.9317 4.89652 22.3968 2.97235 24.5827 3.04458C26.574 3.02079 27.8664 4.65241 27.655 7.58856C27.6381 13.1422 24.023 18.3073 23.9999 24.2487C24.0245 24.9282 23.3756 25.6031 23.1234 24.281C22.2431 21.9327 21.5118 19.5314 20.9338 17.0911C20.7447 17.5343 20.5909 17.9918 20.474 18.4594C20.0957 17.2623 17.77 14.8714 16.9604 14.8506L16.9435 14.8498L16.2668 17.1095L16.1991 17.6393C15.8824 19.3062 18.8656 21.7824 19.6029 23.7603C17.4225 24.9716 15.4724 26.5573 13.8419 28.4448C11.9986 26.8027 10.0548 25.2772 8.02172 23.8771Z" fill="url(#paint0_linear_3563_494)"/>
<defs>
<linearGradient id="paint0_linear_3563_494" x1="13.8388" y1="28.4449" x2="13.8388" y2="1.69544e-05" gradientUnits="userSpaceOnUse">
<stop stop-color="#84561B"/>
<stop offset="0.13519" stop-color="#926322"/>
<stop offset="0.3893" stop-color="#B68536"/>
<stop offset="0.73266" stop-color="#F0BC56"/>
<stop offset="0.80488" stop-color="#FDC85D"/>
<stop offset="1" stop-color="#FFD463"/>
</linearGradient>
</defs>
</svg>
