<svg width="39" height="39" viewBox="0 0 39 39" fill="none" xmlns="http://www.w3.org/2000/svg">
<path opacity="0.58" d="M34.4429 12.4944C34.6181 12.6042 34.8251 12.652 35.0307 12.6302C35.2362 12.6083 35.4286 12.5181 35.5768 12.374C35.725 12.2298 35.8205 12.0401 35.848 11.8352C35.8755 11.6303 35.8334 11.4221 35.7285 11.2439C35.0536 9.95372 34.1196 8.81673 32.985 7.90412C31.8504 6.99152 30.5396 6.32294 29.1347 5.94026C29.921 5.80375 30.7219 5.77192 31.5165 5.8456C31.7312 5.8645 31.9459 5.8087 32.1243 5.68765C32.3027 5.5666 32.4338 5.3877 32.4956 5.18116C32.5553 4.97343 32.5402 4.75133 32.4529 4.55361C32.3656 4.35589 32.2116 4.19511 32.0178 4.09933C25.7558 1.00793 21.5601 1.3938 17.2922 5.53095C16.7695 5.36858 16.2126 5.3502 15.6803 5.47775C14.8044 5.67574 14.0225 6.16723 13.4643 6.87067C12.9061 7.57412 12.6052 8.44726 12.6114 9.34525C11.7104 9.41154 10.8606 9.78961 10.2081 10.4145C9.55555 11.0394 9.14107 11.872 9.03586 12.7693L8.33267 13.0479C6.64953 13.6204 5.04675 14.4063 3.56351 15.3865C3.43837 15.4779 3.33797 15.599 3.2714 15.739C3.13881 15.9968 3.0618 16.2796 3.04534 16.5691C3.02887 16.8585 3.07333 17.1482 3.17583 17.4194C3.47865 17.9414 3.94692 18.3475 4.50651 18.5734L4.54798 18.5968C4.5149 18.8657 4.50344 19.1367 4.51371 19.4074C4.51897 19.5066 4.53903 19.6044 4.57322 19.6977C5.06351 20.7093 5.90031 21.5115 6.93166 21.9587C7.0557 22.0173 7.19116 22.0478 7.32836 22.0479H8.34169C8.39938 22.1101 8.45887 22.1714 8.52018 22.2328C8.4312 22.2476 8.34492 22.2756 8.26413 22.3157C7.91802 22.484 7.62414 22.7431 7.4139 23.0655C7.20367 23.3878 7.08498 23.7612 7.07052 24.1458C7.07516 24.3064 7.11258 24.4643 7.18049 24.6099C7.24839 24.7555 7.34535 24.8856 7.46539 24.9923C7.62606 25.1434 7.79916 25.2806 7.98286 25.4026C7.88715 25.985 7.96403 26.5827 8.20401 27.1219C8.44399 27.6612 8.83657 28.1184 9.33333 28.4372C10.1148 28.8255 11.0112 28.9149 11.854 28.6887C10.0619 30.6711 8.87606 33.126 8.43724 35.7621C8.40309 35.9622 8.43583 36.1681 8.5304 36.3478C8.62496 36.5274 8.77609 36.671 8.9604 36.7561C9.14472 36.8413 9.35196 36.8634 9.55008 36.819C9.74821 36.7745 9.92618 36.6661 10.0565 36.5104C11.5452 34.8851 13.4227 33.6649 15.5126 32.9646C17.6262 32.2222 19.5535 31.03 21.1615 29.4703C20.7215 31.0881 20.1009 32.6513 19.3114 34.1303C19.2186 34.3004 19.1817 34.4954 19.2058 34.6877C19.23 34.8799 19.3141 35.0597 19.4462 35.2015C19.5782 35.3433 19.7515 35.44 19.9416 35.4778C20.1316 35.5157 20.3287 35.4927 20.505 35.4123C22.4273 34.5908 24.1411 33.3491 25.5205 31.7784C26.9 30.2077 27.91 28.3479 28.4765 26.3356C28.6586 27.942 28.7081 29.5606 28.6243 31.1751C28.6172 31.365 28.6689 31.5526 28.7723 31.712C28.8757 31.8715 29.0258 31.9952 29.2021 32.0662C29.3784 32.1372 29.5724 32.1521 29.7574 32.1088C29.9425 32.0655 30.1097 31.9661 30.2362 31.8242C31.5934 30.1544 32.5304 28.1835 32.9686 26.0768C33.4069 23.9702 33.3336 21.7891 32.755 19.7166C33.2703 20.3231 33.7216 20.9811 34.1019 21.6802C34.1976 21.856 34.3479 21.996 34.5301 22.0789C34.7123 22.1618 34.9165 22.1832 35.112 22.1398C35.3074 22.0965 35.4834 21.9907 35.6135 21.8385C35.7435 21.6863 35.8205 21.4959 35.8329 21.2961C35.9513 17.7681 34.7606 14.3209 32.49 11.6181C33.1803 11.8132 33.8383 12.1084 34.4429 12.4944ZM14.3441 21.8929C14.4018 21.9866 14.5839 22.304 14.4523 22.4609C13.6037 22.863 12.6552 23.005 11.726 22.8692C11.7522 22.7337 11.7466 22.5939 11.7098 22.4609C11.551 21.8963 11.4698 21.3128 11.4682 20.7263C12.0077 20.6517 12.5574 20.7202 13.0622 20.925C13.5669 21.1297 14.009 21.4635 14.3441 21.8929Z" fill="black"/>
<path opacity="0.28" d="M36.2208 13.0349C36.5183 12.7474 36.71 12.3679 36.765 11.9579C36.8199 11.5479 36.7349 11.1313 36.5238 10.7756C35.5672 9.0588 34.2277 7.58569 32.6093 6.47078C32.9853 6.23145 33.2605 5.86261 33.3829 5.43403C33.502 5.01868 33.4716 4.5747 33.297 4.17947C33.1223 3.78424 32.8146 3.46282 32.4273 3.27124C25.9632 0.0798041 21.4574 0.426904 17.02 4.51716C16.5099 4.44363 15.9906 4.46318 15.4874 4.57486C14.5368 4.78602 13.6726 5.28066 13.009 5.99344C12.3455 6.70621 11.9139 7.60355 11.7712 8.56685C10.909 8.75622 10.1191 9.18845 9.49478 9.81246C8.87045 10.4365 8.43781 11.2262 8.248 12.0882L7.99736 12.1874C6.23874 12.7865 4.56533 13.6114 3.01908 14.6414C2.76955 14.8234 2.56937 15.0648 2.43668 15.3437C2.24849 15.7178 2.14112 16.1272 2.12155 16.5455C2.10198 16.9638 2.17065 17.3815 2.32309 17.7715C2.58978 18.3426 3.03371 18.8125 3.58885 19.1111C3.58516 19.2256 3.58702 19.3401 3.59246 19.4573C3.60302 19.6508 3.64253 19.8416 3.70967 20.0234C4.27728 21.2534 5.27422 22.2341 6.51343 22.7813C6.30737 23.1801 6.1841 23.6165 6.15106 24.0642C6.14242 24.3677 6.20025 24.6693 6.32049 24.9481C6.44073 25.2268 6.62047 25.4759 6.84713 25.6778C6.91203 25.7364 6.98236 25.7995 7.05989 25.8645C7.03395 26.5383 7.189 27.2068 7.50893 27.8004C7.82885 28.394 8.30196 28.8911 8.87906 29.2399C9.20639 29.4245 9.56041 29.5571 9.92845 29.633C8.70913 31.4288 7.89005 33.4656 7.5267 35.6056C7.45879 36.0057 7.52439 36.417 7.71338 36.7761C7.90237 37.1352 8.20426 37.4222 8.57248 37.5928C8.81525 37.706 9.07994 37.7644 9.34781 37.764C9.61802 37.7639 9.88492 37.7046 10.1298 37.5903C10.3746 37.476 10.5914 37.3094 10.765 37.1023C12.1605 35.5897 13.9186 34.4578 15.8732 33.8135C17.0307 33.3525 18.1533 32.8083 19.2323 32.1853C19.0033 32.7127 18.7581 33.2157 18.5021 33.6872C18.3161 34.0274 18.242 34.4175 18.2902 34.8022C18.3385 35.1869 18.5066 35.5467 18.7708 35.8304C19.035 36.1142 19.3818 36.3075 19.7621 36.3831C20.1423 36.4586 20.5367 36.4125 20.8893 36.2513C23.7237 35.0326 26.1119 32.9672 27.7266 30.3381C27.7212 30.6257 27.7122 30.8952 27.7013 31.1405C27.6873 31.5203 27.7907 31.8952 27.9976 32.2141C28.2045 32.5329 28.5048 32.7801 28.8574 32.922C29.21 33.0639 29.5978 33.0936 29.9679 33.0069C30.338 32.9202 30.6723 32.7215 30.9252 32.4378C33.1845 29.791 34.3269 26.37 34.1112 22.8968C34.3833 23.0298 34.6841 23.0936 34.9867 23.0824C35.2893 23.0712 35.5845 22.9854 35.8461 22.8327C36.1076 22.68 36.3274 22.4651 36.4859 22.207C36.6444 21.9489 36.7366 21.6557 36.7545 21.3534C36.8959 18.6273 36.2419 15.919 34.8721 13.5578C35.3715 13.5592 35.853 13.3725 36.2208 13.0349Z" fill="black"/>
<path fill-rule="evenodd" clip-rule="evenodd" d="M19.448 25.8478L16.9807 25.6039C13.1665 28.6319 8.33056 30.3966 8.95551 25.5268C8.58687 25.4058 8.25464 25.194 7.98946 24.9108C7.99347 24.685 8.05961 24.4648 8.18062 24.2741C8.30163 24.0835 8.47282 23.93 8.67541 23.8303C11.5962 24.9475 14.5295 24.4929 15.1526 23.7496C16.248 22.4476 13.8399 19.8061 10.6022 20.631C10.4864 21.5555 10.56 22.494 10.8186 23.3892C10.0256 23.026 9.32583 22.4869 8.7724 21.8128H7.32853C6.51688 21.4606 5.84978 20.8418 5.43756 20.0589C5.42115 19.6753 5.45955 19.2912 5.55159 18.9184C5.61436 18.6628 4.22372 18.2261 4.02796 17.7545C3.97554 17.6021 3.95549 17.4405 3.9691 17.2799C3.98271 17.1193 4.02968 16.9634 4.107 16.822C5.91086 15.6964 7.84271 14.7903 9.86149 14.123C9.85639 13.6572 9.95209 13.1957 10.142 12.7704C10.332 12.345 10.6117 11.9657 10.962 11.6586C11.3123 11.3515 11.7248 11.1237 12.1714 10.991C12.6179 10.8583 13.0879 10.8237 13.5491 10.8896C13.1827 6.79546 17.0965 6.5426 17.399 7.42133C21.3254 3.31999 24.9969 2.35158 31.6078 5.61456C30.2467 5.47734 26.6498 5.61456 27.5163 7.27248C29.0788 7.45168 30.573 8.01328 31.8667 8.90758C33.1604 9.80188 34.2137 11.0013 34.9334 12.3997C33.6196 11.4857 32.0145 11.0891 30.4262 11.286C31.8643 12.6564 33.0048 14.3084 33.7764 16.139C34.548 17.9696 34.9342 19.9395 34.9109 21.9259C34.098 20.2096 32.7294 18.8182 31.0268 17.977C33.2588 23.5569 32.3413 28.7611 29.5471 31.8986C29.84 28.9148 29.4146 25.9042 28.3063 23.1184C27.6311 29.439 24.6951 33.1629 20.1214 35.2611C21.6601 32.3644 22.5839 29.181 22.8347 25.9106C19.3833 33.5995 13.5006 31.6439 9.34884 36.6061C9.78489 34.0173 10.9761 31.6151 12.7729 29.701C14.5696 27.787 16.8919 26.4464 19.448 25.8478ZM28.0946 12.0464C26.4301 11.0388 24.4527 10.68 22.5403 11.0385C23.8483 11.2871 25.0906 11.8037 26.1892 12.5557C25.8867 13.7386 25.2988 14.8294 24.477 15.7325C25.959 14.8092 27.1993 13.5455 28.0946 12.0464ZM15.7677 12.4355C14.4264 12.7888 13.1286 13.2898 11.8978 13.9293C11.8826 14.4763 12.2542 14.9901 13.1449 15.4527C14.2357 14.6578 15.1323 13.6263 15.7677 12.4355Z" fill="black"/>
<path fill-rule="evenodd" clip-rule="evenodd" d="M19.448 25.1593L16.9807 24.9154C13.1665 27.9434 8.33057 29.7081 8.95551 24.8383C8.58688 24.7173 8.25464 24.5055 7.98946 24.2223C7.99347 23.9965 8.05961 23.7763 8.18062 23.5857C8.30163 23.3951 8.47283 23.2415 8.67541 23.1418C11.5962 24.259 14.5295 23.8044 15.1526 23.0611C16.248 21.7591 13.84 19.1176 10.6022 19.9425C10.4864 20.867 10.56 21.8055 10.8186 22.7006C10.0256 22.3375 9.32584 21.7984 8.7724 21.1243H7.32853C6.51688 20.7721 5.84979 20.1533 5.43756 19.3704C5.42114 18.9868 5.45954 18.6027 5.55159 18.2299C5.61436 17.9743 4.22372 17.5376 4.02796 17.066C3.97554 16.9136 3.95549 16.752 3.9691 16.5914C3.98271 16.4308 4.02968 16.2749 4.107 16.1335C5.91086 15.0079 7.84271 14.1018 9.8615 13.4345C9.85639 12.9687 9.9521 12.5073 10.142 12.0819C10.332 11.6565 10.6117 11.2772 10.962 10.9701C11.3123 10.663 11.7248 10.4352 12.1714 10.3025C12.6179 10.1698 13.0879 10.1352 13.5491 10.2011C13.1827 6.10698 17.0965 5.85413 17.399 6.73285C21.3254 2.6315 24.9969 1.66311 31.6078 4.92608C30.2467 4.78888 26.6498 4.92608 27.5163 6.584C29.0788 6.7632 30.573 7.32479 31.8667 8.21908C33.1604 9.11336 34.2137 10.3128 34.9334 11.7111C33.6196 10.7972 32.0145 10.4006 30.4262 10.5975C31.8644 11.9679 33.0048 13.6199 33.7764 15.4504C34.548 17.281 34.9342 19.2509 34.911 21.2373C34.098 19.5211 32.7294 18.1296 31.0269 17.2883C33.2589 22.8683 32.3414 28.0725 29.5472 31.2099C29.8401 28.2261 29.4146 25.2156 28.3063 22.4298C27.6312 28.7504 24.6951 32.4742 20.1215 34.5724C21.6602 31.6758 22.5839 28.4924 22.8347 25.2221C19.3833 32.911 13.5005 30.9553 9.34882 35.9175C9.78488 33.3287 10.9761 30.9265 12.7729 29.0124C14.5696 27.0984 16.8919 25.7579 19.448 25.1593ZM28.0946 11.3579C26.4301 10.3503 24.4527 9.99152 22.5403 10.35C23.8483 10.5986 25.0906 11.1152 26.1892 11.8672C25.8867 13.0501 25.2988 14.1409 24.477 15.044C25.959 14.1207 27.1993 12.857 28.0946 11.3579ZM15.7677 11.747C14.4265 12.1003 13.1286 12.6014 11.8978 13.2408C11.8826 13.7878 12.2542 14.3016 13.1449 14.7643C14.2357 13.9694 15.1323 12.9378 15.7677 11.747Z" fill="url(#paint0_linear_3563_61)"/>
<g opacity="0.28">
<path d="M24.7801 4.17083C25.559 4.17906 26.3341 4.28118 27.0886 4.47498C26.8334 4.6472 26.6176 4.87167 26.4555 5.13355C26.2752 5.43696 26.1797 5.7833 26.1792 6.13627C26.1787 6.48925 26.2731 6.83587 26.4526 7.1398C26.5437 7.31416 26.6763 7.46344 26.8386 7.57452C27.001 7.6856 27.1881 7.75507 27.3837 7.7768C28.825 7.91129 30.1999 8.44622 31.3531 9.32115L31.2475 9.32013C30.894 9.31924 30.5412 9.35268 30.1941 9.41999C29.9849 9.46124 29.7905 9.55745 29.6309 9.69873C29.4713 9.84001 29.3521 10.0213 29.2858 10.2238C29.2194 10.4264 29.2082 10.643 29.2532 10.8514C29.2983 11.0597 29.3981 11.2523 29.5423 11.4093C31.1263 13.0505 32.3539 15.0015 33.1479 17.1398C32.632 16.7141 32.0466 16.3805 31.4174 16.1535C31.2001 16.0787 30.9658 16.0679 30.7425 16.1224C30.5192 16.1768 30.3162 16.2943 30.1577 16.4608C29.9992 16.6272 29.8918 16.8357 29.8484 17.0614C29.8049 17.2872 29.8272 17.5206 29.9126 17.734C31.1255 20.5552 31.3846 23.6951 30.6504 26.6769C30.5266 25.0098 30.0921 23.3805 29.3693 21.873C29.2499 21.6449 29.0602 21.4612 28.8284 21.3492C28.5965 21.2371 28.3347 21.2026 28.0818 21.2507C27.8288 21.2989 27.598 21.4271 27.4235 21.6165C27.249 21.8059 27.1401 22.0464 27.1128 22.3025C27.0333 24.0523 26.6069 25.7689 25.8582 27.3525C25.1096 28.9361 24.0537 30.3551 22.7518 31.5271C23.4489 29.5153 23.8794 27.4208 24.0323 25.2971C24.0499 25.0166 23.9684 24.7389 23.8021 24.5123C23.6358 24.2857 23.3953 24.1246 23.1224 24.0572C22.8496 23.9898 22.5617 24.0202 22.309 24.1433C22.0563 24.2664 21.8549 24.4742 21.7397 24.7306C21.0978 26.2323 20.1323 27.5737 18.9122 28.6592C17.6921 29.7447 16.2475 30.5475 14.6814 31.0103C13.6978 31.4076 12.7376 31.8605 11.8055 32.3667C12.6603 30.8699 13.8091 29.5615 15.1827 28.5202C16.5563 27.4789 18.1263 26.7261 19.7983 26.3072C20.0637 26.2263 20.2928 26.0559 20.4467 25.825C20.6006 25.5941 20.6698 25.3171 20.6424 25.041C20.615 24.7648 20.4929 24.5067 20.2966 24.3106C20.1004 24.1144 19.8423 23.9923 19.5662 23.965L17.0989 23.7212C17.0596 23.7172 17.0202 23.7153 16.9807 23.7153C16.7097 23.7154 16.4467 23.8071 16.2345 23.9755C14.7182 25.3617 12.8441 26.2956 10.8244 26.6714C10.637 26.6903 10.4493 26.638 10.2988 26.5248C10.0665 26.0482 10.0122 25.5042 10.1458 24.991C10.1537 24.93 10.1569 24.8684 10.1552 24.8069C10.8538 24.9427 11.5637 25.0118 12.2754 25.0133C13.6443 25.1149 15.0009 24.6934 16.0711 23.8337C16.3747 23.4604 16.5626 23.0065 16.6116 22.5278C16.6607 22.0491 16.5689 21.5665 16.3473 21.1393C15.8988 20.341 15.2401 19.6808 14.4427 19.2306C13.6453 18.7805 12.7398 18.5574 11.8246 18.5858C11.3122 18.5869 10.802 18.652 10.3057 18.7795C10.0747 18.8384 9.86648 18.9647 9.70756 19.1424C9.54864 19.3201 9.44624 19.541 9.4134 19.7772C9.399 19.8804 9.38691 19.9839 9.37713 20.0878C9.19361 19.9806 8.98492 19.9242 8.77242 19.9242H7.62114C7.23853 19.7149 6.90322 19.4289 6.63621 19.0841C6.64375 18.8926 6.67086 18.7025 6.71712 18.5166C6.96708 17.5001 6.02924 16.9863 5.52531 16.7103L5.46129 16.6753C6.62661 16.025 7.84426 15.4733 9.10152 15.026C9.49639 14.8715 9.90004 14.7136 10.3116 14.5471C10.5314 14.4581 10.7199 14.3061 10.8534 14.1101C11.1995 14.8788 11.819 15.4915 12.5915 15.8291C12.7865 15.9305 13.0056 15.9763 13.2249 15.9617C13.4441 15.947 13.6552 15.8724 13.835 15.7461C15.0746 14.8504 16.0935 13.6836 16.8141 12.3345C16.9302 12.1278 16.9825 11.8913 16.9643 11.6549C16.9461 11.4185 16.8584 11.1928 16.712 11.0063C16.5657 10.8197 16.3673 10.6807 16.1421 10.6068C15.9168 10.5329 15.6747 10.5273 15.4462 10.5909C15.1717 10.6672 14.874 10.7532 14.5569 10.8527C14.7021 10.6278 14.7681 10.3609 14.7444 10.0943C14.68 9.73845 14.6909 9.3731 14.7764 9.02177C14.8619 8.67043 15.0201 8.34092 15.2408 8.05447C15.392 7.89035 15.5748 7.75843 15.7783 7.66662C15.9817 7.5748 16.2016 7.52496 16.4247 7.52009L16.4952 7.52246C16.5989 7.64114 16.725 7.73824 16.8662 7.80821C17.0074 7.87818 17.161 7.91965 17.3183 7.93025C17.4755 7.94085 17.6333 7.92038 17.7827 7.86999C17.932 7.81961 18.0699 7.74031 18.1886 7.63661C18.2155 7.61317 18.2412 7.58857 18.2659 7.56281C19.0434 6.56171 20.028 5.74037 21.1523 5.15495C22.2766 4.56954 23.514 4.23381 24.7801 4.17083ZM24.782 12.3726C24.4587 13.0634 24.0431 13.7072 23.5466 14.2861C23.3657 14.5082 23.2703 14.7876 23.2774 15.0739C23.2845 15.3602 23.3938 15.6345 23.5855 15.8473C23.7772 16.0601 24.0387 16.1973 24.3227 16.2341C24.6067 16.271 24.8946 16.2051 25.1342 16.0482C26.7737 15.026 28.144 13.6254 29.1303 11.964C29.2099 11.8279 29.2619 11.6775 29.2833 11.5213C29.3048 11.3651 29.2953 11.2063 29.2553 11.0538C29.2154 10.9013 29.1458 10.7581 29.0506 10.6325C28.9553 10.5069 28.8362 10.4013 28.7002 10.3217L28.6957 10.3191C27.2792 9.47498 25.663 9.02424 24.0141 9.01346C23.4473 9.01456 22.8818 9.06678 22.3244 9.16946C22.0533 9.21904 21.8075 9.3604 21.6284 9.5698C21.4492 9.77921 21.3476 10.0439 21.3405 10.3194C21.3335 10.5949 21.4215 10.8644 21.5898 11.0827C21.758 11.3009 21.9962 11.4547 22.2644 11.518C23.1332 11.7067 23.9778 11.9935 24.782 12.3726ZM12.919 11.4409C12.4831 11.6195 12.0285 11.8249 11.5611 12.0635C11.7346 11.8745 11.9441 11.7221 12.1772 11.6152C12.4104 11.5083 12.6626 11.449 12.919 11.4409ZM24.7801 2.97074C23.3524 3.03386 21.9548 3.40231 20.6815 4.05125C19.4083 4.7002 18.2889 5.61456 17.399 6.73271C17.3117 6.47921 16.9236 6.31981 16.4246 6.31981C15.194 6.31981 13.2882 7.28831 13.549 10.201C13.0878 10.1351 12.6178 10.1697 12.1713 10.3024C11.7247 10.4352 11.3122 10.6629 10.9619 10.97C10.6116 11.2772 10.332 11.6564 10.142 12.0818C9.95206 12.5072 9.85636 12.9686 9.86146 13.4344C7.8427 14.1018 5.91086 15.0079 4.10697 16.1334C4.02963 16.2748 3.98267 16.4308 3.96909 16.5913C3.9555 16.7519 3.97559 16.9136 4.02807 17.0659C4.22379 17.5375 5.61456 17.9743 5.55167 18.2298C5.45952 18.6026 5.42112 18.9867 5.43763 19.3704C5.84986 20.1533 6.51698 20.7721 7.32864 21.1243H8.77249C9.32592 21.7983 10.0256 22.3374 10.8185 22.7006C10.5601 21.8054 10.4865 20.867 10.6022 19.9424C11.0015 19.8394 11.4122 19.7868 11.8246 19.7859C14.4102 19.7859 16.1047 21.9295 15.1526 23.061C14.3155 23.6502 13.2938 23.9172 12.2754 23.813C11.0447 23.8082 9.82504 23.5808 8.67533 23.1417C8.47278 23.2414 8.30162 23.395 8.18065 23.5856C8.05967 23.7762 7.99356 23.9965 7.98958 24.2222C8.25474 24.5054 8.58695 24.7172 8.95556 24.8381C8.67541 27.0218 9.49285 27.8714 10.8245 27.8714C13.1198 27.5038 15.2587 26.4767 16.9808 24.9153L19.4481 25.1592C16.892 25.7578 14.5698 27.0983 12.773 29.0123C10.9762 30.9263 9.78497 33.3285 9.34888 35.9173C13.5007 30.9552 19.3834 32.9108 22.8348 25.2219C22.584 28.4923 21.6603 31.6757 20.1216 34.5723C24.6953 32.4741 27.6314 28.7503 28.3064 22.4298C29.4147 25.2156 29.8402 28.2261 29.5473 31.21C32.3414 28.0726 33.2589 22.8683 31.0269 17.2883C32.7294 18.1296 34.098 19.5211 34.9109 21.2373C34.9342 19.2509 34.548 17.281 33.7764 15.4504C33.0048 13.6199 31.8643 11.9679 30.4262 10.5975C30.6968 10.5452 30.9719 10.5193 31.2475 10.5203C32.5622 10.5711 33.8375 10.9832 34.9334 11.7111C34.2137 10.3127 33.1604 9.11333 31.8667 8.21905C30.5729 7.32476 29.0787 6.76317 27.5163 6.58397C26.8038 5.22107 29.1075 4.88585 30.7061 4.88585C31.0521 4.88585 31.3653 4.9015 31.6077 4.92597C29.5105 3.76246 27.1752 3.09371 24.7801 2.97074ZM24.4769 15.044C25.2986 14.1408 25.8864 13.0501 26.1891 11.8672C25.0905 11.1151 23.8481 10.5985 22.5401 10.35C23.0263 10.2601 23.5196 10.2144 24.014 10.2135C25.452 10.2227 26.8612 10.6179 28.0944 11.3578C27.1991 12.8569 25.9589 14.1207 24.4769 15.044ZM15.7677 11.747C15.1323 12.9378 14.2356 13.9693 13.1449 14.7643C12.2541 14.3016 11.8825 13.7878 11.8978 13.2409C13.1285 12.6013 14.4265 12.1002 15.7677 11.747Z" fill="white"/>
</g>
<g opacity="0.31">
<path d="M9.34783 36.3795C9.28119 36.3797 9.21532 36.3652 9.15489 36.3371C9.06267 36.2947 8.98704 36.223 8.93976 36.1332C8.89248 36.0434 8.8762 35.9405 8.89344 35.8404C9.40074 32.5615 11.1288 29.5955 13.7312 27.5372C13.1192 27.9308 12.4257 28.1802 11.7032 28.2664C10.9807 28.3526 10.248 28.2734 9.56064 28.0348C9.10913 27.7177 8.7629 27.2727 8.56654 26.7571C8.37018 26.2415 8.33269 25.6789 8.45889 25.1418C8.20782 25.0115 7.977 24.8454 7.77366 24.6487L7.68531 24.5693C7.63103 24.5218 7.5887 24.4622 7.56176 24.3953C7.53481 24.3285 7.52401 24.2562 7.53022 24.1843C7.5398 23.8792 7.63232 23.5825 7.79782 23.3259C7.96332 23.0694 8.19556 22.8628 8.46961 22.7283C8.52668 22.7 8.589 22.6839 8.65263 22.6809C8.71626 22.678 8.77981 22.6883 8.83925 22.7112C9.77095 23.1457 10.785 23.3753 11.813 23.3846C12.8409 23.394 13.859 23.1828 14.7984 22.7653C14.9043 22.5952 14.9551 22.3965 14.9438 22.1964C14.9325 21.9962 14.8597 21.8045 14.7353 21.6474C14.3116 21.0908 13.7354 20.6693 13.0767 20.4341C12.4179 20.1988 11.705 20.16 11.0246 20.3223C10.9724 21.0833 11.0535 21.8475 11.2645 22.5806C11.288 22.6668 11.2859 22.758 11.2586 22.8431C11.2313 22.9282 11.1798 23.0035 11.1105 23.0599C11.0412 23.1163 10.957 23.1514 10.8682 23.1609C10.7793 23.1704 10.6896 23.1539 10.6099 23.1134C9.82762 22.7475 9.1268 22.2282 8.54911 21.5861H7.32839C7.25972 21.5862 7.19192 21.5708 7.13004 21.5411C6.2089 21.1414 5.45722 20.4312 5.00599 19.5342C4.98771 19.4879 4.97734 19.4388 4.97533 19.389C4.96221 19.042 4.98823 18.6945 5.05287 18.3532C4.9573 18.2946 4.82578 18.2225 4.72831 18.1684C4.26493 17.9855 3.87073 17.6616 3.60139 17.2426C3.52384 17.0308 3.49163 16.805 3.50685 16.58C3.52207 16.355 3.58437 16.1357 3.68974 15.9362C3.72233 15.8659 3.77267 15.8053 3.83579 15.7604C5.28743 14.8043 6.85489 14.037 8.50037 13.4768C8.81055 13.356 9.12423 13.2334 9.44339 13.1054C9.49737 12.188 9.90462 11.3271 10.5797 10.7035C11.2547 10.0799 12.1451 9.74196 13.0639 9.76069C12.965 8.89996 13.1873 8.03302 13.688 7.326C14.1888 6.61898 14.9328 6.12161 15.7776 5.9292C16.3165 5.78799 16.888 5.84161 17.3913 6.08061C21.6177 1.8461 25.5754 1.4341 31.8122 4.51284C31.9093 4.56062 31.9864 4.64096 32.0303 4.73983C32.0741 4.83871 32.0818 4.94984 32.0521 5.05382C32.0278 5.1611 31.9636 5.25512 31.8725 5.31675C31.7814 5.37838 31.6702 5.40299 31.5616 5.38558C30.148 5.24224 28.2295 5.47303 27.8852 5.98328C27.8668 6.00858 27.854 6.03753 27.8478 6.06818C27.8416 6.09882 27.842 6.13045 27.8491 6.16091C29.4309 6.38323 30.9361 6.98215 32.2383 7.90729C33.5404 8.83244 34.6013 10.0567 35.3318 11.4772C35.3843 11.5664 35.4054 11.6707 35.3915 11.7732C35.3777 11.8758 35.3299 11.9707 35.2557 12.0428C35.1815 12.115 35.0852 12.1601 34.9823 12.171C34.8794 12.1819 34.7758 12.1579 34.6881 12.1029C33.7025 11.449 32.5634 11.0634 31.3832 10.9841C32.6913 12.3517 33.717 13.9639 34.4013 15.7284C35.0857 17.4929 35.4154 19.375 35.3716 21.2671C35.3654 21.367 35.3269 21.4622 35.2619 21.5383C35.1969 21.6144 35.1088 21.6672 35.0111 21.6889C34.9134 21.7106 34.8113 21.6999 34.7202 21.6585C34.6291 21.617 34.5539 21.547 34.5061 21.4591C33.8701 20.2123 32.9699 19.1192 31.8682 18.256C32.7256 20.4464 32.9943 22.8232 32.6476 25.1498C32.3009 27.4764 31.3508 29.6715 29.892 31.5168C29.8289 31.588 29.7452 31.6379 29.6526 31.6597C29.56 31.6815 29.4629 31.6741 29.3746 31.6386C29.2863 31.603 29.2112 31.5411 29.1596 31.4612C29.1079 31.3812 29.0822 31.2873 29.086 31.1922C29.2501 28.8496 29.0574 26.4955 28.5144 24.2107C28.1842 26.5593 27.2569 28.7838 25.8211 30.6715C24.3853 32.5592 22.4891 34.0468 20.314 34.9921C20.2259 35.0325 20.1273 35.0442 20.0322 35.0255C19.9371 35.0067 19.8503 34.9586 19.7841 34.8878C19.7179 34.817 19.6756 34.7271 19.6633 34.631C19.6509 34.5348 19.6692 34.4372 19.7154 34.352C20.8407 32.2269 21.6354 29.9426 22.072 27.5779C20.4167 29.913 18.0535 31.6529 15.3321 32.5399C13.1729 33.2654 11.2347 34.5302 9.70122 36.2146C9.65795 36.2663 9.60389 36.3078 9.54283 36.3363C9.48177 36.3648 9.4152 36.3795 9.34783 36.3795ZM16.9802 24.4539L17.0253 24.4558L19.4937 24.7001C19.5999 24.7105 19.6993 24.7574 19.7749 24.8329C19.8505 24.9083 19.8976 25.0076 19.9083 25.1139C19.9189 25.2202 19.8924 25.3268 19.8332 25.4158C19.7741 25.5047 19.6859 25.5704 19.5838 25.6016C17.3802 26.119 15.3509 27.2056 13.6986 28.7528C12.0464 30.3 10.829 32.2537 10.1682 34.4186C11.6069 33.2502 13.2295 32.3283 14.9697 31.6906C16.6207 31.1906 18.1424 30.3356 19.4282 29.1855C20.7139 28.0354 21.7326 26.618 22.4128 25.0328C22.4575 24.9345 22.5351 24.8549 22.6322 24.8076C22.7293 24.7604 22.8398 24.7485 22.9447 24.774C23.0499 24.7995 23.1427 24.8614 23.2066 24.9486C23.2706 25.0359 23.3018 25.1429 23.2945 25.2509C23.0721 28.1112 22.3502 30.9105 21.1615 33.5216C23.123 32.377 24.7641 30.756 25.9328 28.8087C27.1015 26.8614 27.7599 24.6507 27.8472 22.3813C27.8577 22.2827 27.8996 22.1901 27.9668 22.1171C28.0341 22.0442 28.123 21.9949 28.2205 21.9765C28.3178 21.9586 28.4183 21.9721 28.5074 22.015C28.5965 22.058 28.6697 22.1281 28.7163 22.2154C29.7363 24.6104 30.1904 27.2083 30.0434 29.8072C31.1143 27.9427 31.7234 25.8488 31.8197 23.7008C31.916 21.5527 31.4967 19.4127 30.5969 17.4598C30.5644 17.3777 30.5561 17.2881 30.5729 17.2014C30.5898 17.1148 30.6311 17.0348 30.692 16.9709C30.7528 16.907 30.8307 16.8618 30.9165 16.8408C31.0022 16.8197 31.0922 16.8237 31.1757 16.8522C32.5093 17.4273 33.6421 18.3856 34.4303 19.6055C33.9872 16.305 32.4584 13.2458 30.0848 10.9101C30.0298 10.8496 29.9918 10.7756 29.9747 10.6956C29.9576 10.6156 29.962 10.5326 29.9875 10.4548C30.013 10.3771 30.0586 10.3076 30.1197 10.2532C30.1809 10.1989 30.2553 10.1618 30.3355 10.1456C31.4268 9.9694 32.5455 10.0979 33.5684 10.517C32.8501 9.54386 31.9359 8.73199 30.8847 8.13372C29.8335 7.53544 28.6686 7.16404 27.4651 7.04345C27.3898 7.03497 27.3178 7.00818 27.2552 6.96544C27.1927 6.9227 27.1415 6.86529 27.1063 6.79824C26.9801 6.59832 26.9144 6.36624 26.9169 6.12986C26.9195 5.89349 26.9903 5.66288 27.1207 5.46574C27.4325 5.15332 27.8034 4.90603 28.2117 4.73825C28.62 4.57048 29.0575 4.48557 29.4989 4.48846C23.922 2.27159 20.8767 3.76724 17.7321 7.05245C17.677 7.10917 17.6084 7.151 17.5327 7.17402C17.457 7.19703 17.3768 7.2005 17.2994 7.18408C17.2221 7.16722 17.1505 7.13075 17.0915 7.07817C17.0324 7.02559 16.9879 6.95868 16.9622 6.88389C16.7287 6.79929 16.4803 6.76363 16.2325 6.77914C15.9847 6.79465 15.7427 6.86099 15.5216 6.97403C14.9418 7.25056 14.475 7.71824 14.1995 8.29845C13.924 8.87866 13.8566 9.53602 14.0087 10.1601C14.0196 10.2821 13.9816 10.4034 13.9031 10.4974C13.8245 10.5914 13.7118 10.6504 13.5898 10.6613L13.5543 10.6631C11.1707 10.6938 10.5504 11.7702 10.3196 13.4966C10.3086 13.5775 10.2765 13.654 10.2265 13.7184C10.1764 13.7828 10.1103 13.8329 10.0347 13.8636C9.62725 14.0277 9.22696 14.1845 8.83748 14.3369C7.30647 14.858 5.84385 15.5618 4.48126 16.4329C4.41748 16.5778 4.4085 16.7409 4.45599 16.8918C4.67206 17.0787 4.9122 17.2358 5.17002 17.3588C5.67669 17.6356 6.11302 17.8745 6.00124 18.3379C5.92429 18.6434 5.88911 18.9579 5.89667 19.2728C6.26088 19.8785 6.79684 20.3624 7.43652 20.663H8.77259C8.84445 20.6628 8.91533 20.6795 8.97954 20.7118C9.04375 20.744 9.09947 20.7909 9.14223 20.8487C9.42677 21.2131 9.7698 21.5278 10.1573 21.78C10.0641 21.1499 10.0598 20.5099 10.1448 19.8787C10.1578 19.7879 10.1975 19.703 10.2588 19.6347C10.3201 19.5665 10.4004 19.5181 10.4893 19.4955C11.3964 19.222 12.3657 19.2347 13.2653 19.5321C14.1648 19.8294 14.9509 20.3968 15.5162 21.157C15.7574 21.4741 15.887 21.8618 15.8851 22.2601C15.8831 22.6584 15.7496 23.0449 15.5054 23.3595C14.6778 24.3458 11.5765 24.6668 8.72589 23.6534C8.60322 23.753 8.51802 23.8913 8.48427 24.0456C8.65272 24.2087 8.85807 24.3287 9.08285 24.3953C9.18871 24.4259 9.28013 24.4934 9.34064 24.5855C9.40114 24.6776 9.42674 24.7882 9.41281 24.8975C9.25416 26.1317 9.4561 26.917 10.0132 27.2307C11.1564 27.8726 13.9007 26.771 16.6936 24.5541C16.775 24.4891 16.876 24.4537 16.9802 24.4539ZM17.119 25.3933C16.9748 25.506 16.8288 25.6178 16.6791 25.7287C16.9045 25.6223 17.1353 25.5186 17.3733 25.4185L17.119 25.3933ZM24.4774 15.5061C24.3901 15.5061 24.3047 15.4813 24.2309 15.4347C24.1572 15.3882 24.0981 15.3216 24.0606 15.2429C24.0231 15.1641 24.0086 15.0764 24.0189 14.9897C24.0291 14.9031 24.0637 14.8212 24.1186 14.7534C24.822 13.9715 25.3523 13.0499 25.6746 12.0488C24.6722 11.4537 23.5769 11.0313 22.4345 10.7993C22.3313 10.7749 22.2397 10.7158 22.175 10.6318C22.1103 10.5478 22.0764 10.4441 22.0792 10.3381C22.0819 10.2321 22.1211 10.1303 22.1901 10.0498C22.259 9.96927 22.3536 9.91495 22.4579 9.89596C24.4778 9.52128 26.565 9.8994 28.3251 10.9589C28.431 11.0192 28.5084 11.1192 28.5406 11.2367C28.5727 11.3542 28.5568 11.4797 28.4965 11.5855L28.4928 11.5917C27.563 13.1534 26.2727 14.4697 24.7298 15.4305C24.6551 15.4802 24.5672 15.5065 24.4774 15.5061ZM25.3393 10.7956C25.7553 10.9836 26.1436 11.2278 26.4932 11.5213C26.5532 11.5738 26.5984 11.6409 26.6247 11.7161C26.6509 11.7913 26.6572 11.8721 26.6429 11.9504C26.5817 12.2765 26.4874 12.5955 26.3616 12.9025C26.7645 12.4793 27.1273 12.0196 27.4452 11.5294C26.7824 11.1844 26.073 10.9372 25.3393 10.7956ZM13.1451 15.2267C13.071 15.2268 12.998 15.2088 12.9324 15.1744C11.919 14.6479 11.416 13.9934 11.4358 13.2289C11.4385 13.1473 11.4626 13.0678 11.5056 12.9983C11.5487 12.9289 11.6091 12.8719 11.681 12.8332C12.9417 12.1801 14.27 11.6671 15.6424 11.3033C15.7302 11.2788 15.8232 11.2809 15.9098 11.3092C15.9964 11.3376 16.0727 11.3909 16.129 11.4626C16.1853 11.5342 16.2192 11.621 16.2263 11.7118C16.2334 11.8027 16.2134 11.8936 16.1689 11.9731C15.503 13.2262 14.5593 14.3104 13.4102 15.1429C13.3326 15.1976 13.24 15.227 13.1451 15.2267ZM12.4022 13.5012C12.5538 13.8109 12.8027 14.0623 13.1108 14.217C13.7241 13.743 14.2637 13.1807 14.712 12.5483C13.9196 12.8086 13.1476 13.1271 12.4022 13.5012Z" fill="black"/>
</g>
<g opacity="0.89">
<path fill-rule="evenodd" clip-rule="evenodd" d="M19.4477 26.3434L16.982 26.0996L16.9772 26.1022C15.7519 26.6234 14.6228 27.3465 13.6369 28.2415C11.346 30.2135 9.8269 32.9327 9.34875 35.9175C9.46775 35.7753 9.59285 35.6574 9.71456 35.526C10.3924 33.278 11.6479 31.2471 13.3557 29.6358C15.0636 28.0246 17.1641 26.8893 19.4477 26.3434Z" fill="white"/>
<path fill-rule="evenodd" clip-rule="evenodd" d="M25.912 13.9469C25.5465 14.7726 25.0632 15.5409 24.4769 16.2277C25.9589 15.3044 27.1991 14.0406 28.0943 12.5414C27.8924 12.4244 27.6886 12.3514 27.4863 12.2529C27.0259 12.8742 26.4979 13.4424 25.912 13.9469Z" fill="white"/>
<path fill-rule="evenodd" clip-rule="evenodd" d="M27.516 7.76836C28.7016 7.8844 29.8524 8.23403 30.9021 8.79707C31.9518 9.36012 32.8796 10.1254 33.632 11.0489C34.0837 11.2327 34.519 11.4543 34.9334 11.7113C34.2337 10.3647 33.2249 9.203 31.9897 8.32145C30.7545 7.4399 29.328 6.86356 27.827 6.63965C27.7274 6.6881 27.6393 6.75722 27.5685 6.8424C27.4977 6.92758 27.4459 7.02687 27.4165 7.13365C27.387 7.24043 27.3807 7.35225 27.3979 7.46168C27.415 7.5711 27.4553 7.67572 27.516 7.76836Z" fill="white"/>
<path fill-rule="evenodd" clip-rule="evenodd" d="M4.18565 17.2686C6.10737 16.0867 8.15001 15.1137 10.2787 14.3664C10.3101 13.9046 10.4322 13.4536 10.6379 13.039C10.8436 12.6244 11.129 12.2544 11.4777 11.9501C11.8264 11.6458 12.2317 11.4132 12.6703 11.2655C13.1089 11.1178 13.5723 11.058 14.0341 11.0894C14.1172 11.0951 14.2 11.1037 14.2825 11.1152C13.916 7.02108 17.0966 7.0382 17.3991 7.91687C20.7897 4.37497 23.9996 3.18525 29.068 5.02406C29.9074 4.888 30.7603 4.85508 31.6077 4.92603C24.9967 1.66313 21.3252 2.63153 17.399 6.7328C17.0966 5.85415 13.1825 6.1069 13.549 10.2011C13.0878 10.1352 12.6179 10.1698 12.1713 10.3025C11.7248 10.4353 11.3122 10.663 10.962 10.9701C10.6117 11.2773 10.332 11.6565 10.1421 12.0819C9.95211 12.5072 9.8564 12.9687 9.8615 13.4345C7.84274 14.1019 5.91089 15.0079 4.107 16.1334C4.0297 16.2748 3.98274 16.4308 3.96911 16.5914C3.95549 16.7519 3.97551 16.9136 4.02788 17.066C4.06621 17.1435 4.11989 17.2124 4.18565 17.2686Z" fill="white"/>
<path fill-rule="evenodd" clip-rule="evenodd" d="M25.8743 12.8428C26.0149 12.5304 26.1204 12.2033 26.189 11.8676C26.0885 11.7933 25.9844 11.7242 25.877 11.6605C24.7869 11.3779 23.6485 11.3349 22.5402 11.5345C23.7163 11.783 24.843 12.2251 25.8743 12.8428Z" fill="white"/>
<path fill-rule="evenodd" clip-rule="evenodd" d="M30.4261 11.7818C32.9983 14.299 34.5881 17.6512 34.9099 21.2357L34.9108 21.2376C35.0002 17.7299 33.7393 14.3219 31.3885 11.717C31.0663 11.703 30.7436 11.7247 30.4261 11.7818Z" fill="white"/>
<path fill-rule="evenodd" clip-rule="evenodd" d="M13.1449 15.9479C14.2356 15.1529 15.1323 14.1214 15.7676 12.9307C15.4267 13.0254 15.0827 13.129 14.7358 13.2413C14.278 13.8196 13.7427 14.332 13.1448 14.7639C12.855 14.6176 12.5892 14.4279 12.3567 14.2013C12.2036 14.2763 12.0533 14.3423 11.8978 14.4246C11.8825 14.9714 12.2544 15.4853 13.1449 15.9479Z" fill="white"/>
<path fill-rule="evenodd" clip-rule="evenodd" d="M8.67532 24.326C11.5962 25.4434 14.5294 24.9887 15.1524 24.2453C15.3007 24.049 15.3885 23.8136 15.4048 23.568C15.4211 23.3225 15.3654 23.0775 15.2443 22.8633C15.2207 22.9323 15.1899 22.9987 15.1524 23.0613C14.5027 23.4513 13.7819 23.7083 13.032 23.8172C12.2821 23.9261 11.518 23.8847 10.7842 23.6955C10.0662 23.5741 9.36043 23.3888 8.67532 23.142C8.47275 23.2417 8.30157 23.3953 8.18054 23.5859C8.05952 23.7765 7.99334 23.9967 7.98926 24.2225C8.12136 24.3457 8.25978 24.4619 8.40396 24.5707C8.47986 24.4743 8.57163 24.3916 8.67532 24.326Z" fill="white"/>
</g>
<defs>
<linearGradient id="paint0_linear_3563_61" x1="19.4492" y1="35.9175" x2="19.4492" y2="2.9707" gradientUnits="userSpaceOnUse">
<stop stop-color="#424242"/>
<stop offset="0.09255" stop-color="#585858"/>
<stop offset="0.82439" stop-color="white"/>
</linearGradient>
</defs>
</svg>
