<svg width="45" height="45" viewBox="0 0 45 45" fill="none" xmlns="http://www.w3.org/2000/svg">
<path fill-rule="evenodd" clip-rule="evenodd" d="M21.75 43.4869C17.513 43.3381 13.5953 41.9342 10.3574 39.6355C12.4063 39.5689 14.9367 38.7623 17.6839 37.3293L18.2476 38.7721L19.761 36.1508C21.6481 34.9963 23.6019 33.5773 25.5447 31.9271C29.7625 34.8496 33.3408 36.0544 34.6976 34.6976C36.0544 33.3408 34.8496 29.7625 31.9271 25.5448C32.8972 24.4027 33.7873 23.2567 34.5909 22.1227L36 23.25V20.0055C38.2601 16.3721 39.5505 12.9725 39.6356 10.3573C41.9342 13.5953 43.3382 17.513 43.4869 21.75H40.5L39 22.5L40.5 23.25H43.4869C43.1007 34.2517 34.2517 43.1007 23.25 43.4869V40.5L22.5 39L21.75 40.5V43.4869ZM19.2606 34.6968C20.8968 33.6757 22.5928 32.4438 24.2914 31.0219C22.5024 29.6782 20.6306 28.0552 18.7876 26.2123C18.6905 26.1152 18.594 26.0179 18.4981 25.9207L15.75 25.3928L16.9698 24.3085C15.8633 23.0939 14.8604 21.8834 13.9781 20.7086C12.7612 22.1624 11.6834 23.6143 10.7578 25.0284L12 26.0221L9.55013 27.0021C8.99393 27.9806 8.51857 28.9312 8.12873 29.8408C7.30935 31.7527 6.89931 33.4106 6.86265 34.7243C6.82611 36.0337 7.1577 36.8562 7.65075 37.3492C8.1438 37.8423 8.96632 38.1739 10.2757 38.1373C11.5894 38.1007 13.2472 37.6906 15.1592 36.8713C15.7989 36.5971 16.4589 36.2806 17.1347 35.9235L16.5 34.2991L19.2606 34.6968ZM13.0729 19.4553C11.7563 21.0054 10.5868 22.5625 9.58132 24.0872L8.25 23.0221V26.2539C6.45566 29.4093 5.43955 32.3321 5.36444 34.6426C3.06578 31.4047 1.66187 27.487 1.51314 23.25H4.5L6 22.5L4.5 21.75H1.51314C1.89933 10.7483 10.7483 1.89933 21.75 1.51315V4.5L22.5 6L23.25 4.5V1.51315C27.487 1.66187 31.4047 3.06578 34.6427 5.36443C32.3992 5.43737 29.5785 6.39745 26.5282 8.09571L26.0024 6.75001L24.5363 9.28933C22.8691 10.358 21.1579 11.6267 19.4552 13.0729C15.2375 10.1504 11.6592 8.94561 10.3024 10.3024C8.94563 11.6592 10.1504 15.2375 13.0729 19.4553ZM24.937 10.8178C23.5517 11.7298 22.1311 12.7873 20.7085 13.9781C22.333 15.1981 24.0257 16.6486 25.7031 18.2848L28.125 18.75L27.0823 19.6768C28.569 21.2293 29.8939 22.7896 31.0219 24.2914C31.8934 23.2502 32.6936 22.21 33.4176 21.184L32.25 20.25L34.6879 19.2748C35.5813 17.8447 36.3137 16.46 36.8713 15.1591C37.6907 13.2472 38.1007 11.5894 38.1374 10.2757C38.1738 8.97006 37.8442 8.14851 37.3535 7.65501L37.345 7.64646C36.8515 7.15578 36.0299 6.82621 34.7243 6.86264C33.4105 6.8993 31.7528 7.30934 29.8409 8.12871C28.9552 8.50828 28.0306 8.96901 27.0793 9.50638L27.75 11.2231L24.937 10.8178ZM25.9605 20.674C27.5163 22.2956 28.8817 23.9164 30.0182 25.455C29.319 26.2419 28.58 27.0265 27.8033 27.8033C27.0265 28.58 26.2419 29.3191 25.4549 30.0182C23.6551 28.6888 21.7427 27.046 19.8484 25.1517C19.7174 25.0207 19.5875 24.8896 19.459 24.7585L19.125 22.3928L18.091 23.3119C16.9239 22.0317 15.8812 20.7626 14.9818 19.5451C15.681 18.7581 16.42 17.9734 17.1967 17.1967C17.9734 16.42 18.7581 15.681 19.545 14.9818C21.0987 16.1295 22.7363 17.5105 24.3738 19.0855L24.75 21.75L25.9605 20.674ZM44.9877 23.25C44.8064 28.7866 42.6248 33.8171 39.1423 37.6423L45 43.5V45H43.5L37.6423 39.1423C33.8171 42.6248 28.7865 44.8064 23.25 44.9878V45H22.5H21.75V44.9878C9.9198 44.6003 0.399725 35.0803 0.0122644 23.25H0V22.5V21.75H0.0122644C0.193595 16.2135 2.37517 11.1829 5.85767 7.35768L0 1.5V0H1.5L7.35767 5.85768C11.183 2.37517 16.2135 0.193596 21.75 0.0122645V0H22.5H23.25V0.0122645C29.1624 0.205906 34.4977 2.6806 38.4045 6.58471L38.4099 6.59008L38.4155 6.59565C42.3195 10.5024 44.7941 15.8377 44.9877 21.75H45V22.5V23.25H44.9877ZM12.5735 15.7942C12.992 16.5787 13.5008 17.4159 14.0924 18.2894C14.7429 17.5666 15.4247 16.8474 16.136 16.136C16.8474 15.4246 17.5665 14.7429 18.2893 14.0924C17.4159 13.5008 16.5786 12.9919 15.7941 12.5735C14.4276 11.8447 13.2988 11.4325 12.4645 11.2964C11.5871 11.1533 11.3684 11.3578 11.363 11.3631C11.3577 11.3684 11.1533 11.5872 11.2964 12.4645C11.4325 13.2988 11.8448 14.4277 12.5735 15.7942ZM29.2059 32.4265C28.4214 32.0081 27.5841 31.4992 26.7106 30.9076C27.4334 30.2571 28.1526 29.5753 28.864 28.864C29.5753 28.1526 30.2571 27.4335 30.9076 26.7106C31.4992 27.5841 32.008 28.4214 32.4265 29.2059C33.1552 30.5724 33.5675 31.7012 33.7036 32.5355C33.8467 33.4129 33.6422 33.6316 33.6369 33.637C33.6316 33.6423 33.4129 33.8467 32.5354 33.7036C31.7011 33.5675 30.5723 33.1552 29.2059 32.4265ZM22.5 24C23.3284 24 24 23.3284 24 22.5C24 21.6716 23.3284 21 22.5 21C21.6716 21 21 21.6716 21 22.5C21 23.3284 21.6716 24 22.5 24Z" fill="white"/>
</svg>
